<?xml version="1.0" standalone="no"?>
<!DOCTYPE svg PUBLIC "-//W3C//DTD SVG 20010904//EN"
 "http://www.w3.org/TR/2001/REC-SVG-20010904/DTD/svg10.dtd">
<svg version="1.0" xmlns="http://www.w3.org/2000/svg"
 width="400.000000pt" height="161.000000pt" viewBox="0 0 400.000000 161.000000"
 preserveAspectRatio="xMidYMid meet">

<g transform="translate(0.000000,161.000000) scale(0.100000,-0.100000)"
fill="#000000" stroke="none">
<path d="M1048 1273 c7 -3 16 -2 19 1 4 3 -2 6 -13 5 -11 0 -14 -3 -6 -6z"/>
<path d="M1171 1200 c-12 -36 -9 -38 13 -6 9 14 12 27 7 30 -5 3 -14 -8 -20
-24z"/>
<path d="M1712 1163 c-12 -10 -75 -93 -141 -185 l-121 -168 69 0 69 0 63 87
c35 48 72 100 81 115 10 15 22 28 27 28 10 0 101 -121 101 -134 0 -3 -35 -6
-78 -6 l-79 0 -32 -45 -32 -45 217 0 216 0 -24 33 c-14 17 -67 93 -118 167
-108 157 -121 170 -165 170 -18 0 -42 -8 -53 -17z"/>
<path d="M2130 995 l0 -185 164 0 164 0 36 43 35 42 -145 3 -144 3 0 139 0
140 -55 0 -55 0 0 -185z"/>
<path d="M2590 995 l0 -185 55 0 54 0 3 73 3 72 102 3 102 3 30 38 c17 22 31
40 31 42 0 2 -60 4 -132 4 -130 0 -133 0 -136 23 -3 22 -2 22 106 22 l110 0
36 45 37 45 -200 0 -201 0 0 -185z"/>
<path d="M3168 1169 c-10 -5 -74 -88 -143 -184 l-125 -175 69 0 69 0 82 115
c45 63 85 115 89 115 8 0 101 -124 101 -134 0 -3 -35 -6 -78 -6 l-79 0 -31
-39 c-18 -22 -32 -42 -32 -45 0 -3 97 -6 215 -6 l214 0 -121 173 c-67 94 -129
177 -137 184 -19 15 -70 16 -93 2z"/>
<path d="M965 1040 c-17 -18 -17 -20 -2 -14 10 3 17 1 17 -6 0 -6 5 -8 10 -5
12 7 13 45 2 45 -5 0 -17 -9 -27 -20z"/>
<path d="M1080 1009 c7 -11 14 -19 16 -16 7 7 -7 37 -17 37 -6 0 -5 -9 1 -21z"/>
<path d="M1028 997 c-3 -19 -2 -25 4 -19 6 6 8 18 6 28 -3 14 -5 12 -10 -9z"/>
<path d="M511 887 c-15 -85 -14 -122 4 -192 48 -183 194 -316 375 -344 43 -7
81 -7 110 0 25 5 61 11 80 13 31 3 120 40 120 50 0 6 -87 -28 -96 -37 -4 -4
-14 -7 -22 -7 -10 0 -7 7 9 25 13 13 34 25 47 25 12 0 22 5 22 10 0 6 -56 10
-149 10 -166 0 -144 -7 -247 84 -46 40 -114 161 -114 202 0 12 -4 26 -10 29
-18 11 -10 -38 15 -100 l25 -60 -40 43 c-21 23 -45 42 -52 42 -20 0 -57 50
-64 88 -4 19 -4 68 -1 108 3 41 4 74 2 74 -2 0 -8 -28 -14 -63z m427 -503 l37
-26 -30 7 c-16 4 -32 11 -35 15 -3 5 -17 13 -30 19 -25 10 -25 10 -2 10 13 1
40 -11 60 -25z"/>
<path d="M1462 718 c-16 -16 -16 -94 0 -105 7 -4 31 -15 53 -23 36 -14 40 -19
40 -50 0 -35 0 -35 -48 -38 -32 -2 -47 -7 -44 -15 5 -16 66 -21 101 -8 25 10
27 14 24 63 -3 51 -4 52 -53 77 -34 18 -51 33 -53 48 -3 23 7 28 66 35 12 2
24 8 25 13 3 15 -96 18 -111 3z"/>
<path d="M1662 718 c-8 -8 -12 -49 -12 -120 0 -119 5 -128 69 -128 57 0 71 27
71 133 0 78 -3 97 -18 110 -22 20 -92 23 -110 5z m82 -24 c12 -11 16 -36 16
-93 0 -85 -10 -105 -52 -99 -22 3 -23 8 -26 91 -3 89 5 117 34 117 7 0 20 -7
28 -16z"/>
<path d="M1849 723 c0 -5 0 -57 1 -118 1 -121 7 -135 63 -135 42 0 67 17 67
45 0 30 -15 32 -30 4 -8 -14 -19 -19 -38 -17 l-27 3 -3 113 c-2 90 -5 112 -17
112 -8 0 -15 -3 -16 -7z"/>
<path d="M2054 693 c-3 -21 -14 -78 -23 -126 -10 -48 -14 -90 -9 -93 14 -9 28
6 28 29 0 35 15 49 46 45 24 -2 30 -9 37 -40 5 -22 15 -38 23 -38 18 0 18 2
-5 102 -11 46 -22 100 -26 121 -5 33 -9 37 -35 37 -26 0 -30 -4 -36 -37z m55
-50 c6 -31 11 -60 11 -65 0 -10 -47 -11 -53 0 -7 11 14 122 23 122 4 0 12 -26
19 -57z"/>
<path d="M2210 600 c0 -109 2 -130 15 -130 12 0 15 20 15 116 l0 115 38 -3
c30 -2 38 -7 40 -26 4 -28 -14 -52 -40 -52 -27 0 -17 -23 13 -30 21 -5 24 -12
27 -63 2 -42 7 -57 17 -57 12 0 15 14 15 58 0 32 -4 62 -10 68 -6 6 -6 21 2
42 8 22 9 40 2 59 -9 26 -14 28 -72 31 l-62 3 0 -131z"/>
<path d="M2521 711 c-6 -11 -11 -60 -11 -110 0 -105 15 -131 73 -131 41 0 64
17 69 49 4 33 -20 38 -32 7 -6 -18 -17 -26 -33 -26 -32 0 -47 18 -47 56 0 36
23 51 60 39 14 -4 20 -2 20 9 0 10 -12 16 -37 18 -33 3 -38 7 -41 31 -7 57 38
75 74 30 21 -26 23 -27 30 -9 13 33 -9 51 -64 54 -42 2 -53 0 -61 -17z"/>
<path d="M2722 718 c-8 -8 -12 -52 -12 -130 0 -97 3 -118 15 -118 12 0 15 21
17 111 3 94 6 114 21 123 12 8 22 8 35 0 14 -9 17 -29 20 -123 2 -90 5 -111
17 -111 12 0 15 20 15 111 0 137 -5 149 -68 149 -27 0 -53 -5 -60 -12z"/>
<path d="M2920 710 c-6 -12 -10 -61 -8 -117 3 -94 4 -98 30 -112 38 -22 102
-5 106 28 6 36 -15 50 -27 18 -7 -19 -18 -27 -34 -27 -32 0 -47 18 -47 57 0
26 5 34 25 39 14 3 32 4 40 0 9 -3 15 0 15 9 0 11 -11 15 -40 15 -39 0 -40 1
-40 34 0 57 54 77 75 28 11 -25 28 -24 33 2 6 30 -18 46 -69 46 -38 0 -51 -4
-59 -20z"/>
<path d="M3107 603 c2 -97 5 -128 15 -128 9 0 13 20 15 70 0 39 2 89 2 113 1
43 1 43 34 40 29 -3 32 -6 32 -38 0 -29 -4 -36 -23 -38 -28 -4 -24 -26 6 -30
24 -4 25 -5 22 -75 -1 -42 1 -48 16 -45 15 2 19 13 19 48 1 25 -5 56 -13 69
-10 17 -11 26 -3 34 15 15 14 80 -1 95 -7 7 -37 12 -67 12 l-56 0 2 -127z"/>
<path d="M3310 704 c-10 -26 -6 -44 9 -44 5 0 11 9 14 21 4 16 12 20 34 17
l28 -3 3 -86 c2 -67 -1 -89 -12 -98 -20 -16 -52 -6 -59 19 -8 31 -27 24 -27
-10 0 -50 71 -69 110 -30 18 18 20 33 20 130 l0 110 -55 0 c-50 0 -56 -2 -65
-26z"/>
<path d="M3485 720 c-4 -6 5 -10 20 -10 15 0 24 4 20 10 -3 6 -12 10 -20 10
-8 0 -17 -4 -20 -10z"/>
<path d="M3490 569 c0 -86 2 -100 16 -97 12 2 16 21 17 101 2 86 0 97 -15 97
-16 0 -18 -11 -18 -101z"/>
<path d="M880 600 c0 -6 50 -10 130 -10 80 0 130 4 130 10 0 6 -50 10 -130 10
-80 0 -130 -4 -130 -10z"/>
<path d="M880 545 c0 -13 21 -15 130 -15 109 0 130 2 130 15 0 13 -21 15 -130
15 -109 0 -130 -2 -130 -15z"/>
<path d="M880 485 c0 -13 21 -15 130 -15 109 0 130 2 130 15 0 13 -21 15 -130
15 -109 0 -130 -2 -130 -15z"/>
</g>
</svg>
